<svg xmlns="http://www.w3.org/2000/svg" viewBox="0 0 768.04 517.5"><defs><style>.cls-1{fill:#032ca6;}.cls-2{fill:#ccc;}</style></defs><title>logo2</title><g id="Layer_2" data-name="Layer 2"><g id="Layer_1-2" data-name="Layer 1"><rect class="cls-1" x="446" y="141.5" width="200" height="115" rx="19.16" ry="19.16"/><rect class="cls-1" x="223" y="282.5" width="200" height="115" rx="19.16" ry="19.16"/><rect class="cls-1" x="446" y="282.5" width="200" height="115" rx="19.16" ry="19.16"/><rect class="cls-1" width="200" height="115" rx="19.16" ry="19.16"/><rect class="cls-1" x="223" y="0.5" width="200" height="115" rx="19.16" ry="19.16"/><rect class="cls-1" x="446" y="0.5" width="200" height="115" rx="19.16" ry="19.16"/><rect class="cls-1" y="141" width="200" height="115" rx="19.16" ry="19.16"/><rect class="cls-1" x="223" y="141.5" width="200" height="115" rx="19.16" ry="19.16"/><rect class="cls-1" y="282" width="200" height="115" rx="19.16" ry="19.16"/><path class="cls-2" d="M590.19,511.4l12.75-31.72a108.82,108.82,0,0,0,27.49-.34l14.19,33.27a7.79,7.79,0,0,0,10.2,4.1l39.85-17a7.79,7.79,0,0,0,4.1-10.2L684.4,455.84a108.79,108.79,0,0,0,17.59-18l39.23,15.77a7.79,7.79,0,0,0,10.11-4.31l16.16-40.2A7.79,7.79,0,0,0,763.17,399l-39-15.69a108.78,108.78,0,0,0,0-24.87l33-14.08a7.79,7.79,0,0,0,4.1-10.2l-17-39.85a7.79,7.79,0,0,0-10.2-4.1l-32.1,13.69a108.82,108.82,0,0,0-20.24-20.1l12.48-31.05a7.79,7.79,0,0,0-4.31-10.11l-40.2-16.16a7.79,7.79,0,0,0-10.11,4.31L627,262a108.76,108.76,0,0,0-23.6,0l-14.94-35a7.79,7.79,0,0,0-10.2-4.1l-39.85,17a7.79,7.79,0,0,0-4.1,10.2L548.74,284a108.83,108.83,0,0,0-20.52,20.56L498.5,292.6a7.79,7.79,0,0,0-10.11,4.31l-16.16,40.2a7.79,7.79,0,0,0,4.31,10.11l29.9,12a108.81,108.81,0,0,0,.36,26.22l-32.47,13.85a7.79,7.79,0,0,0-4.1,10.2l17,39.85a7.79,7.79,0,0,0,10.2,4.1L530,439.54a108.79,108.79,0,0,0,18.35,18l-12.82,31.9a7.79,7.79,0,0,0,4.31,10.11l40.2,16.16A7.79,7.79,0,0,0,590.19,511.4ZM570.51,352.48A48.82,48.82,0,1,1,597.6,416,48.82,48.82,0,0,1,570.51,352.48Z"/><rect class="cls-2" x="57" y="57.5" width="86" height="460" rx="11.24" ry="11.24"/></g></g></svg>